<svg xmlns="http://www.w3.org/2000/svg" xmlns:xlink="http://www.w3.org/1999/xlink" viewBox="0 0 429.01 68.2"><defs><style>.cls-1{isolation:isolate;}.cls-2{fill:#1c40b2;}.cls-3{fill:url(#linear-gradient);}.cls-4{fill:url(#linear-gradient-2);}.cls-5{fill:url(#linear-gradient-3);}.cls-6{fill:url(#linear-gradient-4);}.cls-7{fill:url(#linear-gradient-5);}.cls-8{opacity:0.5;}.cls-9{fill:#fecf07;mix-blend-mode:multiply;}.cls-10{fill:url(#linear-gradient-6);}.cls-11{opacity:0.6;}.cls-12{fill:#324a9e;opacity:0.95;}</style><linearGradient id="linear-gradient" x1="-586.24" y1="-4822.76" x2="-578.2" y2="-4822.76" gradientTransform="translate(-4605.29 -409.86) rotate(102.28)" gradientUnits="userSpaceOnUse"><stop offset="0" stop-color="#f9ec0d"/><stop offset="1" stop-color="#f7a800"/></linearGradient><linearGradient id="linear-gradient-2" x1="-1105.21" y1="-4922.28" x2="-1097.17" y2="-4922.28" gradientTransform="matrix(0.59, 0.81, -0.81, 0.59, -3103.48, 3812.99)" xlink:href="#linear-gradient"/><linearGradient id="linear-gradient-3" x1="-853.18" y1="-6048.78" x2="-845.14" y2="-6048.78" gradientTransform="matrix(0.21, 0.98, 0.98, -0.21, 6265.33, -409.86)" xlink:href="#linear-gradient"/><linearGradient id="linear-gradient-4" x1="-366.24" y1="-5936.33" x2="-358.19" y2="-5936.33" gradientTransform="matrix(-0.59, 0.81, 0.81, 0.59, 4763.52, 3812.99)" xlink:href="#linear-gradient"/><linearGradient id="linear-gradient-5" x1="-1379.78" y1="-5438.62" x2="-1371.74" y2="-5438.62" gradientTransform="translate(1578.45 5450.83)" xlink:href="#linear-gradient"/><linearGradient id="linear-gradient-6" x1="-5537.14" y1="34.6" x2="-5537.14" y2="51.23" gradientTransform="matrix(-1, 0, 0, 1, -5334.46, 0)" xlink:href="#linear-gradient"/></defs><title>Asset 22</title><g class="cls-1"><g id="Layer_2" data-name="Layer 2"><g id="Layer_1-2" data-name="Layer 1"><path class="cls-2" d="M39.34,15.63a13.6,13.6,0,0,0-12.53,5.79,13.56,13.56,0,0,0-12.52-5.79A15.21,15.21,0,0,0,4.14,20.32C1.39,23.25,0,27.14,0,31.9V54.44H7.24V31.33a9.85,9.85,0,0,1,2.08-6.41,6.37,6.37,0,0,1,5.32-2.49,8.61,8.61,0,0,1,6,2.28,7.1,7.1,0,0,1,2.48,5.55V54.44h7.31V30.26a7.12,7.12,0,0,1,2.47-5.55A8.65,8.65,0,0,1,39,22.43,6.54,6.54,0,0,1,44.38,25a9.69,9.69,0,0,1,2.13,6.37V54.44h7.25V31.9c0-4.76-1.42-8.66-4.21-11.59A15.46,15.46,0,0,0,39.34,15.63Z"/><path class="cls-2" d="M80.47,15.5a18.28,18.28,0,0,0-14.23,5.64,19.59,19.59,0,0,0-5.92,14.27,19.37,19.37,0,0,0,5.51,13.78,18.77,18.77,0,0,0,13.36,6.07h.64a18.23,18.23,0,0,0,12.51-4.78v3.95h7V35.37A18.4,18.4,0,0,0,94.05,21.6,19.14,19.14,0,0,0,80.47,15.5Zm-1.1,32.83a11.81,11.81,0,0,1-8.55-4.13,12.57,12.57,0,0,1-3.44-9.12,12.26,12.26,0,0,1,3.75-9,12.11,12.11,0,0,1,9-3.69,11.38,11.38,0,0,1,8.55,3.68A12.71,12.71,0,0,1,92.34,35a12.81,12.81,0,0,1-3.75,9.53A11.42,11.42,0,0,1,79.37,48.33Z"/><rect class="cls-2" x="105.89" y="16.38" width="7.05" height="38.06"/><rect class="cls-2" x="105.89" y="3.76" width="7.05" height="7.29"/><path class="cls-2" d="M149.46,20.41a18.75,18.75,0,0,0-12-4.72,18.3,18.3,0,0,0-14.13,5.7,19.62,19.62,0,0,0-5.91,14.27,19.44,19.44,0,0,0,5.49,13.78,18.64,18.64,0,0,0,13.44,6h.7a18.8,18.8,0,0,0,13.57-5.71,18.61,18.61,0,0,0,5.87-14.16V4h-7ZM136.54,48.52A11.58,11.58,0,0,1,128,44.45a12.89,12.89,0,0,1-3.48-9.15,12.34,12.34,0,0,1,3.78-9A11.85,11.85,0,0,1,137,22.62a11.6,11.6,0,0,1,8.74,3.68,12.84,12.84,0,0,1,3.68,9h0a12.67,12.67,0,0,1-3.69,9.52A11.24,11.24,0,0,1,136.54,48.52Z"/><path class="cls-2" d="M267.25,15.5a18.47,18.47,0,0,0-12,4.7V3.76h-7.06V35.32a18.71,18.71,0,0,0,5.87,14.21,18.78,18.78,0,0,0,13.58,5.74h.69a18.94,18.94,0,0,0,13.47-6.07,19.38,19.38,0,0,0,5.52-13.78,19.53,19.53,0,0,0-5.94-14.23A18.2,18.2,0,0,0,267.25,15.5Zm13,19.58a12.8,12.8,0,0,1-3.49,9.16,11.85,11.85,0,0,1-8.6,4.09A11.55,11.55,0,0,1,259,44.56,12.54,12.54,0,0,1,255.27,35,12.67,12.67,0,0,1,259,26.11a11.43,11.43,0,0,1,8.58-3.68,12,12,0,0,1,8.93,3.72A12.58,12.58,0,0,1,280.29,35.08Z"/><path class="cls-2" d="M302.11,17.14a12.09,12.09,0,0,0-2.78,2V16.38h-6.74V54.44h7.31V31.9a10,10,0,0,1,1-4.94,11.6,11.6,0,0,1,2.56-2.65,7.75,7.75,0,0,1,4.72-1.57l1.1,0v-7l-1.09-.05A11.7,11.7,0,0,0,302.11,17.14Z"/><rect class="cls-2" x="314.5" y="3.76" width="7.05" height="7.29"/><rect class="cls-2" x="314.5" y="16.38" width="7.05" height="38.06"/><path class="cls-2" d="M347.17,15.19a18.81,18.81,0,0,0-13.43,6.06A19.33,19.33,0,0,0,328.24,35a19.58,19.58,0,0,0,5.91,14.25,18.36,18.36,0,0,0,14.14,5.69,18.86,18.86,0,0,0,12-4.67v.65a10.26,10.26,0,0,1-3.49,7.79,11.92,11.92,0,0,1-8.34,3.37A12.44,12.44,0,0,1,341,59.62a10.79,10.79,0,0,1-4.33-5.76l-.24-.82h-7l.39,1.44a18.27,18.27,0,0,0,6.3,9.57,19.82,19.82,0,0,0,11.71,4.14h.79a19.78,19.78,0,0,0,12.68-4.47,15,15,0,0,0,6-12.12V35.11A18.86,18.86,0,0,0,361.42,21,18.9,18.9,0,0,0,347.17,15.19ZM348,22.1a11.44,11.44,0,0,1,8.63,3.81,12.66,12.66,0,0,1,3.68,9.5h0a12.72,12.72,0,0,1-3.68,8.92A11.37,11.37,0,0,1,348,48a12,12,0,0,1-8.88-3.69,12.48,12.48,0,0,1-3.82-9,12.84,12.84,0,0,1,3.48-9.13,11.83,11.83,0,0,1,8.57-4.13Z"/><path class="cls-2" d="M390.11,15.82a14.38,14.38,0,0,0-9.31,3.84V3.76h-7.05V54.44h7.05V32.08a8.81,8.81,0,0,1,2.78-6.73,9.81,9.81,0,0,1,6.94-2.73,9.24,9.24,0,0,1,7,2.84,9.39,9.39,0,0,1,3,7v22h7.06V33a16.75,16.75,0,0,0-5.16-12.42A16,16,0,0,0,390.11,15.82Z"/><path class="cls-2" d="M429,23.06V16.32h-8.28V3.83h-7.06V42.94c0,5.59,2.47,12.26,14.2,12.26H429V49h-1.14c-4.87,0-7.14-2.17-7.14-6.83V23.06Z"/><path class="cls-3" d="M242.8,49.76l-23.08-8.4A16.94,16.94,0,0,1,218.27,48l24.49,2A.1.1,0,0,0,242.8,49.76Z"/><path class="cls-4" d="M235.79,16.88,214.18,28.55a16.79,16.79,0,0,1,2.27,2.54A16.58,16.58,0,0,1,218.17,34l17.74-17A.1.1,0,0,0,235.79,16.88Z"/><path class="cls-5" d="M162.49,49.76l23.09-8.4A17.17,17.17,0,0,0,187,48l-24.48,2A.1.1,0,0,1,162.49,49.76Z"/><path class="cls-6" d="M169.51,16.88l21.61,11.67a16.27,16.27,0,0,0-2.27,2.54A17.27,17.27,0,0,0,187.12,34L169.39,17A.1.1,0,0,1,169.51,16.88Z"/><path class="cls-7" d="M202.58.09l-3.29,24.34a17.12,17.12,0,0,1,6.79,0L202.78.09A.1.1,0,0,0,202.58.09Z"/><g class="cls-8"><path class="cls-9" d="M229.83,22.86,235.91,17a.1.1,0,0,0-.12-.15L214.18,28.55a16.54,16.54,0,0,1,1.7,1.84Z"/><path class="cls-9" d="M219.33,44.75A17.31,17.31,0,0,1,218.27,48l.91.07c0-.18.11-.36.15-.55a17.1,17.1,0,0,0,.39-3.38l14,5.1,9,.72a.1.1,0,0,0,0-.19l-23.08-8.4A17.2,17.2,0,0,1,219.33,44.75Z"/><path class="cls-9" d="M202.58.09l-3.29,24.34c.31-.06.62-.1.93-.14l2.36-17.44a.1.1,0,0,1,.2,0l2.36,17.44c.31,0,.63.08.94.14L202.78.09A.1.1,0,0,0,202.58.09Z"/><path class="cls-9" d="M185.58,41.36l-23.09,8.4a.1.1,0,0,0,0,.19l9-.72,14-5.1a16.38,16.38,0,0,0,.39,3.38c0,.19.1.37.15.55L187,48a17.17,17.17,0,0,1-1.44-6.63Z"/><path class="cls-9" d="M169.39,17l6.07,5.83,13.95,7.53a17.64,17.64,0,0,1,1.71-1.84L169.51,16.88A.1.1,0,0,0,169.39,17Z"/></g><path class="cls-10" d="M216.41,41.19a13.73,13.73,0,1,0-23.67,9.46c3.25-.24,6.58-.36,9.94-.36s6.69.12,9.94.36A13.65,13.65,0,0,0,216.41,41.19Z"/><g class="cls-11"><path class="cls-9" d="M193.91,41.19a13.7,13.7,0,0,1,11.25-13.48,13.54,13.54,0,0,0-2.48-.24,13.72,13.72,0,0,0-9.94,23.18c1.56-.12,3.14-.2,4.72-.26A13.67,13.67,0,0,1,193.91,41.19Z"/></g><path class="cls-12" d="M238,58.19a97.61,97.61,0,0,0-23.52-4.79c-3.78-.34-7.73-.52-11.79-.52s-8,.18-11.79.52a97.42,97.42,0,0,0-23.51,4.79l-.09,0h.09c8.56-1,17.93-1.6,27.8-1.81,2.47,0,5-.09,7.5-.09s5,0,7.51.09c9.86.21,19.23.84,27.79,1.81h.1Z"/><g class="cls-8"><path class="cls-9" d="M219.72,44c0-.49,0-1-.07-1.44a17.93,17.93,0,0,1-.27,2l.32-.05C219.7,44.32,219.72,44.17,219.72,44Z"/><path class="cls-9" d="M185.67,44.47l.32.05a15.77,15.77,0,0,1-.27-2c0,.47-.07,1-.07,1.44C185.65,44.17,185.67,44.32,185.67,44.47Z"/><path class="cls-9" d="M205.16,50.33c2.51.05,5,.14,7.46.32.08-.09.15-.18.23-.26-1.73-.07-3.47-.1-5.22-.1C206.8,50.29,206,50.32,205.16,50.33Z"/></g></g></g></g></svg>